<svg width="180" height="180" viewBox="0 0 32 32" fill="none" xmlns="http://www.w3.org/2000/svg">
  <!-- Background circle with gradient -->
  <defs>
    <linearGradient id="bg-gradient" x1="0%" y1="0%" x2="100%" y2="100%">
      <stop offset="0%" style="stop-color:#3b82f6;stop-opacity:1" />
      <stop offset="100%" style="stop-color:#1d4ed8;stop-opacity:1" />
    </linearGradient>
    <linearGradient id="book-gradient" x1="0%" y1="0%" x2="100%" y2="100%">
      <stop offset="0%" style="stop-color:#fbbf24;stop-opacity:1" />
      <stop offset="100%" style="stop-color:#f59e0b;stop-opacity:1" />
    </linearGradient>
  </defs>
  
  <!-- Background -->
  <rect width="32" height="32" rx="6" fill="url(#bg-gradient)"/>
  
  <!-- Open book icon -->
  <g transform="translate(6, 8)">
    <!-- Left page -->
    <path d="M2 2 C2 2, 8 4, 10 6 L10 14 C8 12, 2 10, 2 10 Z" fill="url(#book-gradient)" stroke="white" stroke-width="0.5"/>
    <!-- Right page -->
    <path d="M18 2 C18 2, 12 4, 10 6 L10 14 C12 12, 18 10, 18 10 Z" fill="url(#book-gradient)" stroke="white" stroke-width="0.5"/>
    <!-- Spine -->
    <line x1="10" y1="6" x2="10" y2="14" stroke="white" stroke-width="1"/>
    <!-- Pages lines -->
    <line x1="4" y1="8" x2="8" y2="8.5" stroke="#1d4ed8" stroke-width="0.3"/>
    <line x1="4" y1="10" x2="8" y2="10.5" stroke="#1d4ed8" stroke-width="0.3"/>
    <line x1="12" y1="8.5" x2="16" y2="8" stroke="#1d4ed8" stroke-width="0.3"/>
    <line x1="12" y1="10.5" x2="16" y2="10" stroke="#1d4ed8" stroke-width="0.3"/>
  </g>
  
  <!-- Graduation cap accent -->
  <g transform="translate(20, 4)">
    <rect x="0" y="0" width="8" height="2" rx="1" fill="#10b981"/>
    <polygon points="2,2 6,2 4,4" fill="#10b981"/>
    <circle cx="7" cy="2.5" r="0.5" fill="#fbbf24"/>
  </g>
</svg>