<svg width="192" height="192" viewBox="0 0 192 192" fill="none" xmlns="http://www.w3.org/2000/svg">
  <!-- Background with gradient -->
  <defs>
    <linearGradient id="bgGradient" x1="0%" y1="0%" x2="100%" y2="100%">
      <stop offset="0%" style="stop-color:#2563eb;stop-opacity:1" />
      <stop offset="100%" style="stop-color:#1d4ed8;stop-opacity:1" />
    </linearGradient>
    <linearGradient id="accentGradient" x1="0%" y1="0%" x2="100%" y2="100%">
      <stop offset="0%" style="stop-color:#10b981;stop-opacity:1" />
      <stop offset="100%" style="stop-color:#059669;stop-opacity:1" />
    </linearGradient>
  </defs>
  
  <!-- Rounded background -->
  <rect width="192" height="192" rx="32" fill="url(#bgGradient)"/>
  
  <!-- Education/book icon -->
  <g transform="translate(48, 48)">
    <!-- Book base -->
    <rect x="16" y="24" width="64" height="48" rx="4" fill="white" opacity="0.95"/>
    <rect x="20" y="28" width="56" height="40" rx="2" fill="#f8fafc"/>
    
    <!-- Book spine -->
    <rect x="16" y="24" width="8" height="48" rx="4" fill="white"/>
    
    <!-- Book pages lines -->
    <line x1="28" y1="36" x2="68" y2="36" stroke="#64748b" stroke-width="1.5" opacity="0.6"/>
    <line x1="28" y1="44" x2="68" y2="44" stroke="#64748b" stroke-width="1.5" opacity="0.6"/>
    <line x1="28" y1="52" x2="60" y2="52" stroke="#64748b" stroke-width="1.5" opacity="0.6"/>
    <line x1="28" y1="60" x2="64" y2="60" stroke="#64748b" stroke-width="1.5" opacity="0.6"/>
    
    <!-- Graduation cap -->
    <g transform="translate(48, 8)">
      <ellipse cx="0" cy="8" rx="24" ry="6" fill="url(#accentGradient)"/>
      <polygon points="-24,8 0,0 24,8 20,10 0,4 -20,10" fill="url(#accentGradient)"/>
      <circle cx="20" cy="12" r="2" fill="url(#accentGradient)"/>
      <line x1="20" y1="14" x2="20" y2="20" stroke="url(#accentGradient)" stroke-width="2"/>
    </g>
    
    <!-- Arabic/geometric pattern accent -->
    <g transform="translate(8, 80)" opacity="0.7">
      <polygon points="0,0 8,4 0,8 -8,4" fill="url(#accentGradient)"/>
      <polygon points="16,0 24,4 16,8 8,4" fill="url(#accentGradient)" opacity="0.8"/>
      <polygon points="32,0 40,4 32,8 24,4" fill="url(#accentGradient)" opacity="0.6"/>
    </g>
  </g>
  
  <!-- Small Algerian flag colors accent -->
  <rect x="152" y="152" width="24" height="16" rx="2" fill="#059669" opacity="0.8"/>
  <rect x="152" y="152" width="8" height="16" rx="2" fill="#dc2626" opacity="0.8"/>
</svg>
