<svg width="192" height="192" viewBox="0 0 32 32" fill="none" xmlns="http://www.w3.org/2000/svg">
  <defs>
    <!-- Main brand gradient matching your green theme -->
    <linearGradient id="brand-gradient" x1="0%" y1="0%" x2="100%" y2="100%">
      <stop offset="0%" style="stop-color:#10b981;stop-opacity:1" />
      <stop offset="50%" style="stop-color:#059669;stop-opacity:1" />
      <stop offset="100%" style="stop-color:#047857;stop-opacity:1" />
    </linearGradient>
    
    <!-- Complementary accent gradient -->
    <linearGradient id="accent-gradient" x1="0%" y1="0%" x2="100%" y2="100%">
      <stop offset="0%" style="stop-color:#3b82f6;stop-opacity:1" />
      <stop offset="100%" style="stop-color:#1d4ed8;stop-opacity:1" />
    </linearGradient>
    
    <!-- Book/content gradient -->
    <radialGradient id="content-gradient" cx="50%" cy="30%" r="70%">
      <stop offset="0%" style="stop-color:#ffffff;stop-opacity:1" />
      <stop offset="100%" style="stop-color:#f1f5f9;stop-opacity:1" />
    </radialGradient>
    
    <!-- Arabic text gradient -->
    <linearGradient id="text-gradient" x1="0%" y1="0%" x2="100%" y2="100%">
      <stop offset="0%" style="stop-color:#1f2937;stop-opacity:1" />
      <stop offset="100%" style="stop-color:#374151;stop-opacity:1" />
    </linearGradient>
    
    <!-- Shadow and glow effects -->
    <filter id="main-shadow" x="-50%" y="-50%" width="200%" height="200%">
      <feDropShadow dx="0" dy="2" stdDeviation="2" flood-color="#000" flood-opacity="0.1"/>
    </filter>
    
    <filter id="element-shadow" x="-50%" y="-50%" width="200%" height="200%">
      <feDropShadow dx="0" dy="1" stdDeviation="1" flood-color="#000" flood-opacity="0.15"/>
    </filter>
    
    <filter id="glow" x="-50%" y="-50%" width="200%" height="200%">
      <feGaussianBlur stdDeviation="0.5" result="coloredBlur"/>
      <feMerge> 
        <feMergeNode in="coloredBlur"/>
        <feMergeNode in="SourceGraphic"/>
      </feMerge>
    </filter>
  </defs>
  
  <!-- Main container with modern rounded corners -->
  <rect width="32" height="32" rx="7" fill="url(#brand-gradient)" filter="url(#main-shadow)"/>
  
  <!-- Subtle inner glow -->
  <rect x="1" y="1" width="30" height="30" rx="6" fill="none" 
        stroke="rgba(255,255,255,0.2)" stroke-width="0.5"/>
  
  <!-- Open book base -->
  <g transform="translate(3, 7)">
    <!-- Book container -->
    <rect x="1" y="1" width="24" height="16" rx="2" fill="url(#content-gradient)" 
          filter="url(#element-shadow)" stroke="rgba(0,0,0,0.05)" stroke-width="0.5"/>
    
    <!-- Book spine -->
    <rect x="12" y="1" width="2" height="16" rx="1" fill="url(#brand-gradient)" opacity="0.3"/>
    
    <!-- Left page content - Arabic text style -->
    <g transform="translate(3, 4)">
      <!-- Arabic text lines (right-to-left) -->
      <rect x="0" y="1" width="7" height="0.8" rx="0.4" fill="url(#text-gradient)" opacity="0.6"/>
      <rect x="1" y="3" width="6" height="0.8" rx="0.4" fill="url(#text-gradient)" opacity="0.5"/>
      <rect x="0" y="5" width="8" height="0.8" rx="0.4" fill="url(#text-gradient)" opacity="0.4"/>
      <rect x="2" y="7" width="5" height="0.8" rx="0.4" fill="url(#text-gradient)" opacity="0.3"/>
    </g>
    
    <!-- Right page content - Arabic text style -->
    <g transform="translate(16, 4)">
      <!-- Arabic text lines (right-to-left) -->
      <rect x="1" y="1" width="7" height="0.8" rx="0.4" fill="url(#text-gradient)" opacity="0.6"/>
      <rect x="2" y="3" width="6" height="0.8" rx="0.4" fill="url(#text-gradient)" opacity="0.5"/>
      <rect x="0" y="5" width="8" height="0.8" rx="0.4" fill="url(#text-gradient)" opacity="0.4"/>
      <rect x="3" y="7" width="5" height="0.8" rx="0.4" fill="url(#text-gradient)" opacity="0.3"/>
    </g>
  </g>
  
  <!-- Graduation cap - positioned to not interfere with book -->
  <g transform="translate(20, 4)">
    <!-- Cap base -->
    <ellipse cx="5" cy="2" rx="6" ry="2" fill="url(#brand-gradient)" filter="url(#element-shadow)"/>
    <!-- Cap top -->
    <ellipse cx="5" cy="1.5" rx="6" ry="2" fill="rgba(255,255,255,0.2)"/>
    <!-- Tassel -->
    <rect x="8" y="2" width="0.5" height="2.5" fill="url(#brand-gradient)"/>
    <circle cx="8.25" cy="4.8" r="0.7" fill="url(#accent-gradient)" filter="url(#glow)"/>
  </g>
  
  <!-- Arabic learning indicator - stylized ت (ta) letter -->
  <g transform="translate(5, 5)">
    <circle cx="0" cy="0" r="1.5" fill="url(#accent-gradient)" opacity="0.8"/>
    <!-- Simplified Arabic letter shape -->
    <path d="M-0.8,-0.3 Q0,0.5 0.8,-0.3" stroke="white" stroke-width="0.4" fill="none"/>
    <circle cx="0" cy="-0.6" r="0.15" fill="white"/>
    <circle cx="0.4" cy="-0.6" r="0.15" fill="white"/>
  </g>
  
  <!-- Digital/modern elements -->
  <g opacity="0.6">
    <!-- Progress dots -->
    <circle cx="7" cy="26" r="0.8" fill="rgba(255,255,255,0.4)"/>
    <circle cx="25" cy="8" r="0.6" fill="rgba(255,255,255,0.3)"/>
    <circle cx="28" cy="25" r="0.5" fill="rgba(255,255,255,0.2)"/>
  </g>
  
  <!-- Subtle brand accent in corners -->
  <g transform="translate(2, 2)">
    <rect x="0" y="0" width="6" height="0.8" rx="0.4" fill="rgba(255,255,255,0.15)"/>
    <rect x="0" y="0" width="0.8" height="6" rx="0.4" fill="rgba(255,255,255,0.15)"/>
  </g>
  
  <!-- Modern learning symbol overlay -->
  <g transform="translate(22, 20)" opacity="0.7">
    <circle cx="2" cy="2" r="3" fill="none" stroke="rgba(255,255,255,0.2)" stroke-width="0.5"/>
    <circle cx="2" cy="2" r="1.5" fill="none" stroke="rgba(255,255,255,0.3)" stroke-width="0.3"/>
    <circle cx="2" cy="2" r="0.5" fill="rgba(255,255,255,0.4)"/>
  </g>
</svg>